<svg id="svg" version="1.1" width="400" height="275.9493670886076" viewBox="0 0 400 275.9493670886076" xmlns="http://www.w3.org/2000/svg" xmlns:xlink="http://www.w3.org/1999/xlink" ><g id="svgg"><path id="path0" d="M58.661 191.856 C 58.567 192.008,57.815 192.133,56.989 192.133 C 55.837 192.133,55.487 192.229,55.487 192.547 C 55.487 192.830,55.202 192.961,54.581 192.961 C 53.993 192.961,53.537 193.154,53.278 193.513 C 53.059 193.816,52.650 194.065,52.369 194.065 C 51.809 194.065,51.070 194.682,51.070 195.149 C 51.070 195.312,50.937 195.445,50.774 195.445 C 50.392 195.445,49.689 196.147,49.689 196.530 C 49.689 196.692,49.565 196.825,49.413 196.825 C 49.262 196.825,49.137 197.074,49.137 197.378 C 49.137 197.681,49.013 197.930,48.861 197.930 C 48.709 197.930,48.585 198.165,48.585 198.452 C 48.585 198.740,48.399 199.046,48.171 199.134 C 47.943 199.221,47.757 199.538,47.757 199.837 C 47.757 200.136,47.633 200.458,47.481 200.552 C 47.329 200.646,47.205 201.399,47.205 202.225 C 47.205 203.051,47.081 203.727,46.929 203.727 C 46.767 203.727,46.653 204.687,46.653 206.057 C 46.653 207.338,46.777 208.464,46.929 208.558 C 47.081 208.651,47.205 209.404,47.205 210.230 C 47.205 211.056,47.329 211.732,47.481 211.732 C 47.633 211.732,47.757 212.043,47.757 212.422 C 47.757 212.852,47.914 213.112,48.171 213.112 C 48.401 213.112,48.585 213.358,48.585 213.665 C 48.585 213.968,48.709 214.217,48.861 214.217 C 49.013 214.217,49.137 214.471,49.137 214.782 C 49.137 215.423,51.661 218.081,52.270 218.081 C 52.489 218.081,52.961 218.390,53.318 218.767 C 53.699 219.169,54.282 219.454,54.727 219.457 C 55.145 219.460,55.487 219.586,55.487 219.738 C 55.487 219.890,56.162 220.014,56.989 220.014 C 57.815 220.014,58.567 220.138,58.661 220.290 C 58.755 220.442,59.508 220.566,60.334 220.566 C 61.160 220.566,61.836 220.442,61.836 220.290 C 61.836 220.138,62.512 220.014,63.338 220.014 C 64.164 220.014,64.917 219.890,65.010 219.738 C 65.104 219.586,65.392 219.462,65.651 219.462 C 65.909 219.462,66.455 219.151,66.864 218.772 C 67.274 218.392,67.758 218.081,67.941 218.081 C 68.369 218.081,69.841 216.439,69.841 215.961 C 69.841 215.761,69.997 215.596,70.186 215.595 C 70.578 215.592,71.222 214.358,71.222 213.610 C 71.222 213.336,71.346 213.112,71.498 213.112 C 71.649 213.112,71.774 212.669,71.774 212.127 C 71.774 211.584,71.960 210.954,72.188 210.727 C 72.415 210.499,72.602 209.949,72.602 209.504 L 72.602 208.696 69.013 208.696 L 65.424 208.696 65.424 209.386 C 65.424 209.765,65.300 210.076,65.148 210.076 C 64.997 210.076,64.872 210.449,64.872 210.904 C 64.872 211.360,64.748 211.732,64.596 211.732 C 64.444 211.732,64.320 211.873,64.320 212.045 C 64.320 212.425,62.988 213.608,62.319 213.823 C 62.053 213.908,61.836 214.094,61.836 214.235 C 61.836 214.694,58.603 214.546,58.423 214.079 C 58.336 213.851,58.012 213.665,57.704 213.665 C 57.395 213.665,57.143 213.540,57.143 213.389 C 57.143 213.237,56.948 213.112,56.709 213.112 C 56.162 213.112,55.616 212.574,55.366 211.788 C 55.260 211.454,55.057 211.180,54.916 211.180 C 54.774 211.180,54.658 210.932,54.658 210.628 C 54.658 210.324,54.534 210.076,54.382 210.076 C 54.231 210.076,54.106 209.524,54.106 208.850 C 54.106 208.176,53.982 207.547,53.830 207.453 C 53.678 207.360,53.554 206.731,53.554 206.057 C 53.554 205.383,53.678 204.831,53.830 204.831 C 53.982 204.831,54.106 204.272,54.106 203.589 C 54.106 202.905,54.231 202.346,54.382 202.346 C 54.534 202.346,54.658 202.049,54.658 201.686 C 54.658 201.323,54.845 200.954,55.072 200.866 C 55.300 200.779,55.487 200.517,55.487 200.285 C 55.487 200.052,55.611 199.862,55.763 199.862 C 55.914 199.862,56.039 199.676,56.039 199.448 C 56.039 199.218,56.284 199.034,56.591 199.034 C 56.894 199.034,57.143 198.910,57.143 198.758 C 57.143 198.606,57.453 198.482,57.833 198.482 C 58.213 198.482,58.523 198.357,58.523 198.206 C 58.523 198.052,59.259 197.930,60.179 197.930 C 61.100 197.930,61.836 198.052,61.836 198.206 C 61.836 198.357,62.084 198.482,62.388 198.482 C 62.692 198.482,62.940 198.606,62.940 198.758 C 62.940 198.910,63.105 199.034,63.307 199.034 C 63.509 199.034,63.841 199.344,64.044 199.724 C 64.247 200.104,64.517 200.414,64.643 200.414 C 64.769 200.414,64.876 200.631,64.881 200.897 C 64.904 202.137,65.456 202.346,68.698 202.346 L 71.774 202.346 71.774 200.568 C 71.774 199.590,71.649 198.714,71.498 198.620 C 71.346 198.526,71.222 198.208,71.222 197.913 C 71.222 197.619,71.112 197.378,70.978 197.378 C 70.844 197.378,70.666 197.117,70.582 196.798 C 70.499 196.478,70.298 196.300,70.136 196.400 C 69.974 196.500,69.841 196.387,69.841 196.149 C 69.841 195.555,68.471 194.065,67.924 194.065 C 67.679 194.065,67.300 193.816,67.081 193.513 C 66.822 193.154,66.366 192.961,65.778 192.961 C 65.157 192.961,64.872 192.830,64.872 192.547 C 64.872 192.241,64.552 192.133,63.646 192.133 C 62.972 192.133,62.344 192.008,62.250 191.856 C 62.156 191.705,61.349 191.580,60.455 191.580 C 59.562 191.580,58.755 191.705,58.661 191.856 M88.337 195.022 L 88.337 197.930 91.521 197.930 L 94.705 197.930 94.627 195.100 L 94.548 192.271 91.442 192.192 L 88.337 192.114 88.337 195.022 M110.062 192.308 C 109.956 192.414,109.869 193.722,109.869 195.215 L 109.869 197.930 113.053 197.930 L 116.237 197.930 116.159 195.100 L 116.080 192.271 113.167 192.193 C 111.565 192.150,110.168 192.202,110.062 192.308 M159.625 192.362 C 159.351 192.535,159.292 195.495,159.349 206.229 L 159.420 219.876 162.733 219.876 L 166.046 219.876 166.117 206.381 C 166.169 196.645,166.102 192.781,165.876 192.509 C 165.528 192.089,160.251 191.964,159.625 192.362 M179.070 192.313 C 178.966 192.416,178.882 198.691,178.882 206.257 L 178.882 220.014 188.682 220.014 L 198.482 220.014 198.482 218.249 C 198.482 215.998,199.088 216.149,190.040 216.149 L 182.471 216.149 182.471 211.732 L 182.471 207.315 189.786 207.315 L 197.101 207.315 197.101 205.797 L 197.101 204.279 189.786 204.279 L 182.471 204.279 182.471 200.138 L 182.471 195.997 190.333 195.997 L 198.195 195.997 198.357 195.354 C 198.445 195.000,198.479 194.162,198.431 193.491 L 198.344 192.271 188.800 192.198 C 183.552 192.158,179.173 192.210,179.070 192.313 M238.656 192.578 C 238.311 192.922,238.229 193.470,238.291 194.993 L 238.371 196.963 240.235 197.045 L 242.098 197.127 242.098 194.630 L 242.098 192.133 240.599 192.133 C 239.589 192.133,238.956 192.277,238.656 192.578 M312.675 192.317 C 312.574 192.418,312.491 193.536,312.491 194.801 L 312.491 197.101 314.286 197.101 L 316.080 197.101 316.080 194.617 L 316.080 192.133 314.470 192.133 C 313.584 192.133,312.777 192.215,312.675 192.317 M98.551 196.963 L 98.551 199.862 96.883 199.862 L 95.215 199.862 95.295 202.001 L 95.376 204.141 96.963 204.224 L 98.551 204.306 98.551 210.504 C 98.551 214.451,98.651 216.701,98.827 216.701 C 98.979 216.701,99.103 216.958,99.103 217.273 C 99.103 217.884,99.700 218.634,100.187 218.634 C 100.350 218.634,100.483 218.820,100.483 219.048 C 100.483 219.275,100.707 219.462,100.980 219.462 C 101.253 219.462,101.605 219.590,101.762 219.747 C 101.936 219.921,103.380 220.001,105.475 219.954 L 108.903 219.876 108.983 217.572 C 109.034 216.110,108.946 215.126,108.742 214.880 C 108.374 214.436,107.384 214.355,107.384 214.769 C 107.384 215.161,106.507 215.095,105.935 214.661 C 105.506 214.335,105.452 213.732,105.452 209.300 L 105.452 204.305 107.177 204.223 L 108.903 204.141 108.983 202.001 L 109.064 199.862 107.258 199.862 L 105.452 199.862 105.452 197.497 C 105.452 194.018,105.503 194.065,101.716 194.065 L 98.551 194.065 98.551 196.963 M104.903 197.584 L 104.768 200.000 104.683 197.955 C 104.608 196.162,104.707 195.171,104.960 195.168 C 105.003 195.168,104.977 196.255,104.903 197.584 M301.518 198.945 L 300.897 199.377 300.897 209.696 L 300.897 220.014 302.498 220.014 C 304.835 220.014,304.762 220.237,304.762 213.057 C 304.762 209.045,304.862 206.763,305.038 206.763 C 305.190 206.763,305.314 206.453,305.314 206.073 C 305.314 205.694,305.444 205.383,305.603 205.383 C 305.977 205.383,307.246 204.114,307.246 203.739 C 307.246 203.581,307.612 203.451,308.058 203.451 C 308.505 203.451,308.947 203.326,309.041 203.175 C 309.135 203.023,309.763 202.899,310.437 202.899 L 311.663 202.899 311.663 201.134 C 311.663 199.467,311.624 199.360,310.950 199.191 C 310.146 198.989,309.179 199.215,309.179 199.605 C 309.179 199.746,308.647 199.862,307.997 199.862 C 307.133 199.862,306.709 200.010,306.418 200.414 C 306.199 200.718,305.861 200.966,305.667 200.966 C 305.473 200.966,305.314 201.138,305.314 201.348 C 305.314 201.558,305.066 201.795,304.762 201.874 C 304.266 202.004,304.210 201.883,304.210 200.691 C 304.210 199.450,304.151 199.341,303.313 199.010 C 302.819 198.815,302.353 198.623,302.277 198.584 C 302.202 198.545,301.860 198.707,301.518 198.945 M83.092 199.448 C 82.903 199.676,82.546 199.865,82.299 199.868 C 82.052 199.871,81.539 200.117,81.159 200.414 C 80.281 201.101,80.055 201.101,80.055 200.414 C 80.055 199.894,79.871 199.862,76.877 199.862 L 73.699 199.862 73.772 209.869 L 73.844 219.876 76.950 219.954 L 80.055 220.032 80.055 214.916 C 80.055 211.689,80.157 209.800,80.331 209.800 C 80.483 209.800,80.607 209.241,80.607 208.558 C 80.607 207.874,80.726 207.315,80.871 207.315 C 81.213 207.315,82.540 205.989,82.540 205.647 C 82.540 205.501,83.530 205.383,84.748 205.383 L 86.957 205.383 86.957 202.208 L 86.957 199.034 85.196 199.034 C 83.968 199.034,83.332 199.159,83.092 199.448 M124.776 199.448 C 124.587 199.676,124.137 199.862,123.776 199.862 C 123.415 199.862,123.119 199.986,123.119 200.138 C 123.119 200.290,122.902 200.418,122.636 200.423 C 122.060 200.433,121.187 201.050,121.187 201.448 C 121.187 201.603,120.939 201.795,120.635 201.874 C 120.331 201.954,120.083 202.217,120.083 202.459 C 120.083 202.701,119.896 202.899,119.669 202.899 C 119.441 202.899,119.255 203.085,119.255 203.313 C 119.255 203.540,119.130 203.727,118.979 203.727 C 118.827 203.727,118.703 204.030,118.703 204.401 C 118.703 204.771,118.578 205.151,118.427 205.245 C 118.275 205.339,118.150 205.976,118.150 206.661 C 118.150 207.400,117.982 208.075,117.736 208.321 C 117.495 208.562,117.322 209.237,117.322 209.938 C 117.322 210.639,117.495 211.313,117.736 211.555 C 117.969 211.787,118.150 212.462,118.150 213.093 C 118.150 213.711,118.275 214.217,118.427 214.217 C 118.578 214.217,118.703 214.527,118.703 214.907 C 118.703 215.286,118.827 215.597,118.979 215.597 C 119.130 215.597,119.255 215.778,119.255 216.000 C 119.255 216.612,121.365 218.634,122.004 218.634 C 122.321 218.634,122.567 218.815,122.567 219.048 C 122.567 219.275,122.808 219.462,123.103 219.462 C 123.398 219.462,123.716 219.586,123.810 219.738 C 123.911 219.901,125.607 220.014,127.967 220.014 C 130.440 220.014,131.953 219.909,131.953 219.738 C 131.953 219.586,132.205 219.462,132.514 219.462 C 132.822 219.462,133.146 219.275,133.234 219.048 C 133.321 218.820,133.600 218.634,133.854 218.634 C 134.108 218.634,134.495 218.385,134.714 218.081 C 134.932 217.778,135.270 217.529,135.465 217.529 C 135.659 217.529,135.818 217.343,135.818 217.115 C 135.818 216.888,135.942 216.701,136.094 216.701 C 136.246 216.701,136.370 216.453,136.370 216.149 C 136.370 215.845,136.494 215.597,136.646 215.597 C 136.798 215.597,136.922 215.175,136.922 214.660 C 136.922 214.066,137.080 213.663,137.353 213.558 C 137.661 213.440,137.759 213.098,137.698 212.356 L 137.612 211.318 134.507 211.240 L 131.401 211.162 131.401 211.861 C 131.401 212.246,131.277 212.560,131.125 212.560 C 130.973 212.560,130.849 212.742,130.849 212.965 C 130.849 213.187,130.480 213.746,130.030 214.207 C 128.769 215.497,125.604 215.320,125.604 213.960 C 125.604 213.798,125.480 213.665,125.328 213.665 C 125.176 213.665,125.052 213.427,125.052 213.135 C 125.052 212.844,124.920 212.563,124.759 212.509 C 124.362 212.376,124.382 207.007,124.781 206.760 C 124.945 206.659,125.099 206.316,125.123 205.998 C 125.147 205.681,125.265 205.482,125.385 205.556 C 125.505 205.631,125.604 205.562,125.604 205.405 C 125.604 205.247,125.914 205.040,126.294 204.944 C 126.674 204.849,126.984 204.660,126.984 204.525 C 126.984 204.390,127.419 204.279,127.950 204.279 C 128.482 204.279,128.916 204.403,128.916 204.555 C 128.916 204.707,129.165 204.831,129.469 204.831 C 129.772 204.831,130.021 204.955,130.021 205.107 C 130.021 205.259,130.207 205.383,130.435 205.383 C 130.683 205.383,130.849 205.638,130.849 206.018 C 130.849 207.154,131.319 207.315,134.631 207.315 L 137.750 207.315 137.750 206.642 C 137.750 206.271,137.607 205.879,137.431 205.771 C 137.221 205.640,137.188 205.696,137.336 205.935 C 137.484 206.174,137.452 206.230,137.241 206.100 C 137.065 205.991,136.922 205.413,136.922 204.815 C 136.922 204.216,136.798 203.727,136.646 203.727 C 136.494 203.727,136.370 203.469,136.370 203.155 C 136.370 202.544,135.773 201.794,135.285 201.794 C 135.123 201.794,134.990 201.631,134.990 201.431 C 134.990 200.989,132.957 199.865,132.134 199.853 C 131.807 199.848,131.298 199.662,131.003 199.439 C 130.233 198.857,125.260 198.864,124.776 199.448 M144.751 199.448 C 144.653 199.703,144.234 199.862,143.656 199.862 C 143.141 199.862,142.719 199.986,142.719 200.138 C 142.719 200.290,142.471 200.414,142.167 200.414 C 141.863 200.414,141.615 200.538,141.615 200.690 C 141.615 200.842,141.429 200.966,141.201 200.966 C 140.973 200.966,140.787 201.125,140.787 201.319 C 140.787 201.514,140.538 201.852,140.235 202.070 C 139.931 202.289,139.683 202.751,139.683 203.098 C 139.683 203.473,139.515 203.727,139.268 203.727 C 138.951 203.727,138.854 204.079,138.854 205.245 L 138.854 206.763 142.029 206.763 L 145.204 206.763 145.236 206.004 C 145.254 205.587,145.251 205.143,145.229 205.017 C 145.208 204.892,145.317 204.869,145.473 204.965 C 145.628 205.061,145.756 204.946,145.756 204.709 C 145.756 204.401,146.031 204.279,146.722 204.279 C 147.397 204.279,147.688 204.154,147.688 203.865 C 147.688 203.637,147.861 203.451,148.073 203.451 C 148.284 203.451,148.529 203.637,148.616 203.865 C 148.709 204.107,149.123 204.279,149.612 204.279 C 150.265 204.279,150.449 204.400,150.449 204.831 C 150.449 205.135,150.573 205.383,150.725 205.383 C 150.876 205.383,151.001 205.516,151.001 205.679 C 151.001 206.166,150.251 206.763,149.640 206.763 C 149.326 206.763,149.068 206.888,149.068 207.039 C 149.068 207.199,148.191 207.315,146.989 207.315 C 145.396 207.315,144.873 207.412,144.751 207.729 C 144.643 208.011,144.203 208.144,143.380 208.144 C 142.713 208.144,142.167 208.268,142.167 208.420 C 142.167 208.571,141.943 208.696,141.670 208.696 C 141.041 208.696,139.688 209.315,139.685 209.604 C 139.683 209.812,139.431 210.158,138.647 211.032 C 137.645 212.150,138.382 217.425,139.669 218.349 C 139.980 218.573,140.235 218.914,140.235 219.109 C 140.235 219.303,140.545 219.462,140.925 219.462 C 141.304 219.462,141.615 219.586,141.615 219.738 C 141.615 220.082,149.122 220.116,149.496 219.773 C 150.045 219.270,151.283 219.156,151.450 219.593 C 151.582 219.936,152.193 220.014,154.757 220.014 L 157.902 220.014 157.902 219.048 C 157.902 218.516,157.778 218.081,157.626 218.081 C 157.449 218.081,157.350 215.410,157.350 210.619 C 157.350 204.241,157.290 203.134,156.936 202.998 C 156.708 202.911,156.522 202.604,156.522 202.317 C 156.522 202.029,156.398 201.794,156.246 201.794 C 156.094 201.794,155.970 201.661,155.970 201.499 C 155.970 201.011,155.220 200.414,154.609 200.414 C 154.295 200.414,154.037 200.290,154.037 200.138 C 154.037 199.986,153.616 199.862,153.101 199.862 C 152.523 199.862,152.103 199.703,152.005 199.448 C 151.875 199.110,151.206 199.034,148.378 199.034 C 145.550 199.034,144.881 199.110,144.751 199.448 M206.035 199.448 C 205.948 199.676,205.641 199.862,205.353 199.862 C 205.066 199.862,204.831 199.986,204.831 200.138 C 204.831 200.290,204.623 200.414,204.370 200.414 C 204.116 200.414,203.681 200.620,203.403 200.871 C 202.926 201.303,202.899 201.287,202.899 200.595 C 202.899 199.883,202.851 199.862,201.239 199.862 L 199.579 199.862 199.651 209.869 L 199.724 219.876 201.311 219.959 L 202.899 220.041 202.899 213.954 C 202.899 210.081,202.999 207.867,203.175 207.867 C 203.326 207.867,203.451 207.308,203.451 206.625 C 203.451 205.942,203.575 205.383,203.727 205.383 C 203.879 205.383,204.003 205.135,204.003 204.831 C 204.003 204.524,204.187 204.279,204.417 204.279 C 204.645 204.279,204.831 204.146,204.831 203.983 C 204.831 203.496,205.580 202.899,206.191 202.899 C 206.506 202.899,206.763 202.774,206.763 202.622 C 206.763 202.471,207.439 202.346,208.265 202.346 C 209.091 202.346,209.844 202.471,209.938 202.622 C 210.032 202.774,210.296 202.899,210.526 202.899 C 210.756 202.899,211.090 203.059,211.269 203.254 C 212.225 204.300,212.284 204.808,212.284 211.985 C 212.284 220.253,212.214 220.014,214.650 220.014 L 216.149 220.014 216.149 211.870 C 216.149 206.625,216.051 203.727,215.873 203.727 C 215.721 203.727,215.597 203.350,215.597 202.890 C 215.597 202.401,215.425 201.987,215.183 201.894 C 214.955 201.807,214.769 201.608,214.769 201.452 C 214.769 200.930,213.259 199.863,212.521 199.862 C 212.120 199.862,211.720 199.676,211.632 199.448 C 211.506 199.120,210.926 199.034,208.834 199.034 C 206.742 199.034,206.161 199.120,206.035 199.448 M224.056 199.448 C 223.828 199.676,223.385 199.862,223.070 199.862 C 222.756 199.862,222.498 199.986,222.498 200.138 C 222.498 200.290,222.281 200.418,222.015 200.423 C 221.458 200.433,220.566 201.046,220.566 201.419 C 220.566 201.558,220.317 201.852,220.014 202.070 C 219.710 202.289,219.462 202.751,219.462 203.098 C 219.462 203.473,219.295 203.727,219.048 203.727 C 218.818 203.727,218.634 203.972,218.634 204.279 C 218.634 204.582,218.509 204.831,218.357 204.831 C 218.206 204.831,218.081 205.445,218.081 206.195 C 218.081 206.945,217.957 207.636,217.805 207.729 C 217.654 207.823,217.529 208.569,217.529 209.386 C 217.529 210.203,217.654 210.948,217.805 211.042 C 217.957 211.136,218.081 211.889,218.081 212.715 C 218.081 213.541,218.206 214.217,218.357 214.217 C 218.509 214.217,218.634 214.527,218.634 214.907 C 218.634 215.336,218.790 215.597,219.048 215.597 C 219.278 215.597,219.462 215.842,219.462 216.149 C 219.462 216.453,219.586 216.701,219.738 216.701 C 219.890 216.701,220.014 216.834,220.014 216.997 C 220.014 217.484,220.763 218.081,221.374 218.081 C 221.689 218.081,221.946 218.206,221.946 218.357 C 221.946 218.509,222.181 218.634,222.469 218.634 C 222.756 218.634,223.063 218.820,223.150 219.048 C 223.279 219.383,223.918 219.462,226.501 219.462 C 229.084 219.462,229.723 219.383,229.852 219.048 C 229.939 218.820,230.252 218.634,230.546 218.634 C 230.840 218.634,231.399 218.315,231.788 217.927 C 232.656 217.059,232.859 217.185,232.305 218.247 C 232.075 218.688,231.887 219.576,231.886 220.221 C 231.885 220.866,231.783 221.394,231.660 221.394 C 231.536 221.394,231.264 221.829,231.056 222.360 C 230.775 223.077,230.512 223.326,230.038 223.326 C 229.687 223.326,229.400 223.451,229.400 223.602 C 229.400 223.754,229.034 223.879,228.588 223.879 C 228.141 223.879,227.699 224.003,227.605 224.155 C 227.511 224.306,227.124 224.431,226.745 224.431 C 226.355 224.431,226.129 224.311,226.225 224.155 C 226.328 223.988,225.952 223.879,225.275 223.879 C 224.659 223.879,224.155 223.754,224.155 223.602 C 224.155 223.451,223.906 223.326,223.602 223.326 C 223.299 223.326,223.050 223.150,223.050 222.935 C 223.050 222.720,222.957 222.503,222.843 222.452 C 222.729 222.402,222.427 221.988,222.172 221.532 C 221.755 220.787,221.553 220.696,220.171 220.621 L 218.634 220.538 218.634 221.971 C 218.634 223.463,218.590 223.389,220.813 225.681 C 221.177 226.056,221.705 226.363,221.986 226.363 C 222.268 226.363,222.498 226.487,222.498 226.639 C 222.498 226.791,223.004 226.915,223.622 226.915 C 224.253 226.915,224.928 227.097,225.160 227.329 C 225.691 227.860,227.377 227.859,228.396 227.327 C 228.831 227.101,229.669 226.915,230.259 226.915 C 230.849 226.915,231.332 226.791,231.332 226.639 C 231.332 226.487,231.549 226.359,231.815 226.354 C 232.373 226.344,233.264 225.731,233.264 225.358 C 233.264 225.219,233.513 224.926,233.816 224.707 C 234.120 224.488,234.369 224.203,234.369 224.074 C 234.369 223.945,234.555 223.653,234.783 223.425 C 235.010 223.197,235.197 222.779,235.197 222.495 C 235.197 222.211,235.321 221.902,235.473 221.808 C 235.649 221.699,235.749 217.710,235.749 210.750 L 235.749 199.862 234.231 199.862 L 232.712 199.862 232.704 200.897 C 232.697 201.734,232.642 201.840,232.414 201.449 C 232.259 201.184,231.980 200.966,231.793 200.966 C 231.607 200.966,231.275 200.718,231.056 200.414 C 230.837 200.110,230.388 199.862,230.058 199.862 C 229.728 199.862,229.387 199.676,229.300 199.448 C 229.176 199.125,228.627 199.034,226.805 199.034 C 225.098 199.034,224.359 199.145,224.056 199.448 M251.109 199.448 C 250.881 199.676,250.500 199.862,250.261 199.862 C 250.023 199.862,249.826 199.955,249.825 200.069 C 249.820 200.616,248.493 200.895,248.358 200.377 C 248.243 199.940,247.948 199.862,246.403 199.862 L 244.582 199.862 244.582 209.938 L 244.582 220.014 246.229 220.014 C 248.488 220.014,248.447 220.156,248.447 212.291 C 248.447 206.018,248.479 205.602,248.999 205.043 C 249.303 204.717,249.551 204.226,249.551 203.951 C 249.551 203.676,249.734 203.451,249.957 203.451 C 250.180 203.451,250.805 203.202,251.346 202.899 C 252.384 202.316,254.638 202.142,254.934 202.622 C 255.028 202.774,255.293 202.899,255.523 202.899 C 256.005 202.899,256.729 203.549,256.729 203.983 C 256.729 204.146,256.841 204.279,256.978 204.279 C 257.376 204.279,257.591 206.729,257.787 213.527 L 257.971 219.876 259.558 219.959 L 261.146 220.041 261.146 211.780 C 261.146 204.773,261.083 203.466,260.732 203.175 C 260.504 202.986,260.317 202.598,260.317 202.313 C 260.317 202.028,260.193 201.794,260.041 201.794 C 259.890 201.794,259.765 201.661,259.765 201.499 C 259.765 201.116,259.063 200.414,258.681 200.414 C 258.518 200.414,258.385 200.290,258.385 200.138 C 258.385 199.986,258.026 199.862,257.586 199.862 C 257.131 199.862,256.720 199.684,256.629 199.448 C 256.504 199.122,255.941 199.034,253.997 199.034 C 252.166 199.034,251.416 199.141,251.109 199.448 M268.875 199.448 C 268.686 199.676,268.306 199.862,268.029 199.862 C 267.753 199.862,267.451 199.986,267.357 200.138 C 267.263 200.290,266.998 200.414,266.769 200.414 C 266.351 200.414,265.562 201.046,265.562 201.380 C 265.562 201.667,264.800 202.346,264.478 202.346 C 264.315 202.346,264.182 202.657,264.182 203.037 C 264.182 203.416,264.058 203.727,263.906 203.727 C 263.754 203.727,263.630 203.975,263.630 204.279 C 263.630 204.582,263.506 204.831,263.354 204.831 C 263.202 204.831,263.078 205.337,263.078 205.955 C 263.078 206.617,262.897 207.260,262.636 207.521 C 262.092 208.065,262.180 212.031,262.741 212.218 C 262.938 212.284,263.078 212.831,263.078 213.533 C 263.078 214.195,263.202 214.813,263.354 214.907 C 263.506 215.001,263.630 215.319,263.630 215.613 C 263.630 215.908,263.754 216.149,263.906 216.149 C 264.058 216.149,264.182 216.353,264.182 216.602 C 264.182 217.058,265.382 218.366,266.128 218.724 C 266.348 218.829,266.901 219.154,267.357 219.445 C 267.851 219.760,268.706 219.982,269.480 219.994 C 270.192 220.005,270.852 220.138,270.945 220.290 C 271.039 220.442,271.412 220.566,271.774 220.566 C 272.135 220.566,272.508 220.442,272.602 220.290 C 272.696 220.138,273.379 220.014,274.120 220.014 C 274.861 220.014,275.545 219.890,275.638 219.738 C 275.732 219.586,276.050 219.462,276.345 219.462 C 276.639 219.462,276.881 219.275,276.881 219.048 C 276.881 218.820,277.110 218.634,277.390 218.634 C 277.944 218.634,278.813 217.820,278.813 217.301 C 278.813 217.123,278.937 216.977,279.089 216.977 C 279.241 216.977,279.365 216.806,279.365 216.597 C 279.365 216.388,279.551 216.062,279.779 215.873 C 280.007 215.684,280.193 215.234,280.193 214.873 C 280.193 214.512,280.317 214.217,280.469 214.217 C 280.621 214.217,280.745 213.844,280.745 213.389 L 280.745 212.560 278.813 212.560 C 277.065 212.560,276.881 212.613,276.881 213.112 C 276.881 213.416,276.756 213.665,276.605 213.665 C 276.453 213.665,276.329 213.930,276.329 214.254 C 276.329 214.792,275.094 216.148,274.603 216.149 C 274.489 216.149,274.396 216.335,274.396 216.563 C 274.396 216.859,274.096 216.977,273.347 216.977 C 272.770 216.977,272.149 217.126,271.967 217.308 C 271.709 217.566,271.636 217.566,271.636 217.308 C 271.636 217.114,271.237 216.977,270.668 216.977 C 269.886 216.977,269.464 216.738,268.475 215.735 C 267.802 215.052,267.119 214.493,266.959 214.493 C 266.798 214.493,266.667 214.058,266.667 213.527 C 266.667 212.995,266.542 212.560,266.391 212.560 C 266.239 212.560,266.115 212.250,266.115 211.870 L 266.115 211.180 273.430 211.180 L 280.745 211.180 280.745 208.972 C 280.745 207.683,280.630 206.763,280.469 206.763 C 280.317 206.763,280.193 206.337,280.193 205.817 C 280.193 205.296,280.007 204.684,279.779 204.456 C 279.551 204.229,279.365 203.847,279.365 203.608 C 279.365 202.899,276.148 199.862,275.396 199.862 C 275.035 199.862,274.585 199.676,274.396 199.448 C 274.139 199.138,273.447 199.034,271.636 199.034 C 269.824 199.034,269.133 199.138,268.875 199.448 M287.824 199.448 C 287.596 199.676,287.215 199.862,286.976 199.862 C 286.738 199.862,286.542 199.986,286.542 200.138 C 286.542 200.290,286.285 200.414,285.971 200.414 C 285.423 200.414,284.610 200.997,284.610 201.390 C 284.610 201.493,284.300 201.821,283.920 202.120 C 283.540 202.418,283.230 202.902,283.230 203.195 C 283.230 203.487,283.106 203.727,282.954 203.727 C 282.802 203.727,282.678 204.037,282.678 204.417 C 282.678 204.796,282.553 205.107,282.402 205.107 C 282.248 205.107,282.126 205.850,282.126 206.783 C 282.126 207.905,281.989 208.596,281.712 208.873 C 281.484 209.101,281.297 209.518,281.297 209.800 C 281.297 210.082,281.484 210.499,281.712 210.727 C 281.980 210.996,282.126 211.680,282.126 212.679 C 282.126 213.525,282.250 214.217,282.402 214.217 C 282.553 214.217,282.678 214.651,282.678 215.183 C 282.678 215.714,282.802 216.149,282.954 216.149 C 283.106 216.149,283.232 216.304,283.234 216.494 C 283.241 217.028,284.767 218.634,285.268 218.634 C 285.513 218.634,285.714 218.820,285.714 219.048 C 285.714 219.305,285.975 219.462,286.404 219.462 C 286.784 219.462,287.095 219.586,287.095 219.738 C 287.095 219.890,287.778 220.014,288.613 220.014 C 289.448 220.014,290.131 220.138,290.131 220.290 C 290.131 220.442,290.380 220.566,290.683 220.566 C 290.987 220.566,291.235 220.442,291.235 220.290 C 291.235 220.132,292.063 220.014,293.168 220.014 C 294.272 220.014,295.100 219.895,295.100 219.738 C 295.100 219.586,295.257 219.462,295.448 219.462 C 295.639 219.462,296.131 219.151,296.540 218.772 C 296.949 218.392,297.391 218.081,297.521 218.081 C 297.651 218.081,297.928 217.647,298.137 217.115 C 298.345 216.584,298.617 216.149,298.740 216.149 C 298.864 216.149,298.965 215.714,298.965 215.183 C 298.965 214.508,299.090 214.217,299.379 214.217 C 299.655 214.217,299.793 213.941,299.793 213.389 L 299.793 212.560 297.861 212.560 C 295.983 212.560,295.928 212.580,295.928 213.251 C 295.928 213.630,295.804 213.941,295.652 213.941 C 295.500 213.941,295.376 214.112,295.376 214.322 C 295.376 215.106,293.155 216.977,292.224 216.977 C 291.741 216.977,291.197 217.126,291.014 217.308 C 290.757 217.566,290.683 217.566,290.683 217.308 C 290.683 217.100,290.223 216.977,289.441 216.977 C 288.758 216.977,288.199 216.847,288.199 216.689 C 288.199 216.314,286.930 215.045,286.555 215.045 C 286.396 215.045,286.266 214.796,286.266 214.493 C 286.266 214.189,286.142 213.941,285.990 213.941 C 285.839 213.941,285.714 213.630,285.714 213.251 C 285.714 212.871,285.590 212.560,285.438 212.560 C 285.286 212.560,285.162 212.252,285.162 211.875 L 285.162 211.189 292.409 211.116 L 299.655 211.042 299.735 208.760 C 299.800 206.909,299.735 206.448,299.390 206.315 C 299.123 206.213,298.965 205.804,298.965 205.215 C 298.965 204.700,298.841 204.279,298.689 204.279 C 298.537 204.279,298.413 204.021,298.413 203.707 C 298.413 203.392,298.257 202.971,298.068 202.771 C 297.878 202.571,297.488 202.083,297.201 201.687 C 296.914 201.291,296.538 200.966,296.365 200.966 C 296.192 200.966,295.871 200.718,295.652 200.414 C 295.433 200.110,295.002 199.858,294.694 199.853 C 294.386 199.848,293.893 199.662,293.598 199.439 C 292.837 198.863,288.402 198.870,287.824 199.448 M325.014 199.448 C 324.926 199.676,324.620 199.862,324.332 199.862 C 324.045 199.862,323.810 199.986,323.810 200.138 C 323.810 200.290,323.602 200.414,323.348 200.414 C 323.094 200.414,322.660 200.620,322.382 200.871 C 321.905 201.303,321.877 201.287,321.877 200.595 C 321.877 199.891,321.818 199.862,320.359 199.862 L 318.841 199.862 318.841 209.938 L 318.841 220.014 320.359 220.014 L 321.877 220.014 321.877 213.941 C 321.877 210.076,321.978 207.867,322.153 207.867 C 322.305 207.867,322.429 207.308,322.429 206.625 C 322.429 205.942,322.553 205.383,322.705 205.383 C 322.857 205.383,322.981 205.135,322.981 204.831 C 322.981 204.524,323.165 204.279,323.395 204.279 C 323.623 204.279,323.810 204.137,323.810 203.964 C 323.810 203.540,324.662 202.918,325.259 202.907 C 325.524 202.903,325.742 202.774,325.742 202.622 C 325.742 202.471,326.418 202.346,327.244 202.346 C 328.070 202.346,328.823 202.471,328.916 202.622 C 329.010 202.774,329.275 202.899,329.505 202.899 C 329.734 202.899,330.069 203.059,330.247 203.254 C 331.292 204.397,331.357 204.877,331.486 212.379 C 331.558 216.613,331.714 219.630,331.848 219.418 C 332.029 219.133,332.084 219.158,332.087 219.531 C 332.090 219.932,332.349 220.014,333.609 220.014 L 335.128 220.014 335.128 211.870 C 335.128 206.625,335.029 203.727,334.852 203.727 C 334.700 203.727,334.576 203.350,334.576 202.890 C 334.576 202.401,334.404 201.987,334.161 201.894 C 333.934 201.807,333.747 201.608,333.747 201.452 C 333.747 200.930,332.238 199.863,331.500 199.862 C 331.098 199.862,330.698 199.676,330.611 199.448 C 330.485 199.120,329.904 199.034,327.812 199.034 C 325.720 199.034,325.139 199.120,325.014 199.448 M342.857 199.448 C 342.857 199.737,342.566 199.862,341.891 199.862 C 341.360 199.862,340.925 199.986,340.925 200.138 C 340.925 200.290,340.761 200.414,340.560 200.414 C 340.012 200.414,338.440 201.916,338.440 202.440 C 338.440 202.692,338.279 202.899,338.082 202.899 C 337.714 202.899,337.060 204.368,337.060 205.196 C 337.060 205.451,336.936 205.659,336.784 205.659 C 336.613 205.659,336.508 207.126,336.508 209.508 C 336.508 211.775,336.621 213.426,336.784 213.527 C 336.936 213.620,337.060 214.000,337.060 214.371 C 337.060 214.742,337.184 215.045,337.336 215.045 C 337.488 215.045,337.612 215.293,337.612 215.597 C 337.612 215.904,337.796 216.149,338.026 216.149 C 338.254 216.149,338.440 216.288,338.440 216.457 C 338.440 216.879,340.391 218.634,340.860 218.634 C 341.069 218.634,341.427 218.820,341.654 219.048 C 341.974 219.367,342.787 219.462,345.223 219.462 C 347.844 219.462,348.378 219.392,348.378 219.048 C 348.378 218.801,348.632 218.634,349.007 218.634 C 349.353 218.634,349.816 218.385,350.035 218.081 C 350.253 217.778,350.529 217.529,350.648 217.529 C 350.966 217.529,350.909 219.952,350.587 220.152 C 350.435 220.246,350.311 220.660,350.311 221.073 C 350.311 221.508,350.078 221.992,349.758 222.222 C 349.455 222.441,349.206 222.779,349.206 222.973 C 349.206 223.168,349.020 223.326,348.792 223.326 C 348.565 223.326,348.378 223.451,348.378 223.602 C 348.378 223.754,347.892 223.879,347.297 223.879 C 346.683 223.879,346.162 224.028,346.091 224.224 C 345.991 224.500,345.849 224.500,345.381 224.224 C 345.060 224.034,344.371 223.879,343.849 223.879 C 342.804 223.879,341.194 222.475,340.913 221.319 C 340.780 220.770,340.565 220.695,338.912 220.622 L 337.060 220.541 337.060 221.796 C 337.060 222.486,337.184 223.050,337.336 223.050 C 337.488 223.050,337.612 223.361,337.612 223.741 C 337.612 224.120,337.745 224.431,337.908 224.431 C 338.240 224.431,338.992 225.114,338.992 225.416 C 338.992 225.741,339.925 226.345,340.442 226.354 C 340.707 226.359,340.925 226.487,340.925 226.639 C 340.925 226.791,341.473 226.915,342.144 226.915 C 342.815 226.915,343.410 227.055,343.467 227.226 C 343.647 227.765,346.279 227.871,346.790 227.360 C 347.067 227.082,347.703 226.915,348.481 226.915 C 350.258 226.915,352.795 225.380,352.795 224.304 C 352.795 224.070,352.919 223.879,353.071 223.879 C 353.223 223.879,353.347 223.568,353.347 223.188 C 353.347 222.759,353.504 222.498,353.761 222.498 C 354.083 222.498,354.175 222.132,354.175 220.858 C 354.175 219.956,354.300 219.141,354.451 219.048 C 354.627 218.939,354.727 215.410,354.727 209.369 L 354.727 199.862 352.795 199.862 C 351.047 199.862,350.863 199.915,350.863 200.414 C 350.863 200.718,350.738 200.966,350.587 200.966 C 350.435 200.966,350.311 200.842,350.311 200.690 C 350.311 200.538,350.124 200.414,349.896 200.414 C 349.669 200.414,349.482 200.290,349.482 200.138 C 349.482 199.986,349.225 199.862,348.911 199.862 C 348.596 199.862,348.152 199.676,347.925 199.448 C 347.622 199.145,346.884 199.034,345.184 199.034 C 343.300 199.034,342.857 199.113,342.857 199.448 M88.337 209.938 L 88.337 220.014 91.511 220.014 L 94.686 220.014 94.686 209.938 L 94.686 199.862 91.511 199.862 L 88.337 199.862 88.337 209.938 M109.869 209.938 L 109.869 220.014 113.043 220.014 L 116.218 220.014 116.218 209.938 L 116.218 199.862 113.043 199.862 L 109.869 199.862 109.869 209.938 M238.417 200.046 C 238.063 200.401,238.205 219.323,238.565 219.683 C 238.747 219.865,239.616 220.014,240.497 220.014 L 242.098 220.014 242.098 209.938 L 242.098 199.862 240.350 199.862 C 239.388 199.862,238.519 199.945,238.417 200.046 M312.491 209.938 L 312.491 220.014 314.286 220.014 L 316.080 220.014 316.080 209.938 L 316.080 199.862 314.286 199.862 L 312.491 199.862 312.491 209.938 M228.295 202.622 C 228.295 202.774,228.544 202.899,228.847 202.899 C 229.151 202.899,229.400 203.023,229.400 203.175 C 229.400 203.326,229.586 203.451,229.814 203.451 C 230.041 203.451,230.228 203.610,230.228 203.804 C 230.228 203.998,230.476 204.336,230.780 204.555 C 231.084 204.774,231.332 205.166,231.332 205.428 C 231.332 205.689,231.440 205.969,231.572 206.051 C 231.705 206.133,231.874 206.837,231.949 207.615 C 232.024 208.394,232.240 209.126,232.430 209.244 C 232.703 209.413,232.704 209.481,232.432 209.571 C 232.244 209.634,232.028 210.332,231.952 211.123 C 231.876 211.913,231.705 212.560,231.573 212.560 C 231.440 212.560,231.332 212.793,231.332 213.078 C 231.332 213.661,229.673 215.597,229.173 215.597 C 228.994 215.597,228.847 215.721,228.847 215.873 C 228.847 216.031,228.025 216.149,226.931 216.149 C 225.878 216.149,224.939 216.025,224.845 215.873 C 224.751 215.721,224.489 215.597,224.264 215.597 C 223.732 215.597,222.498 214.363,222.498 213.831 C 222.498 213.606,222.374 213.344,222.222 213.251 C 222.070 213.157,221.946 212.835,221.946 212.535 C 221.946 212.236,221.760 211.919,221.532 211.832 C 221.215 211.710,221.118 211.190,221.118 209.613 C 221.118 208.149,221.238 207.432,221.532 207.138 C 221.760 206.910,221.946 206.422,221.946 206.053 C 221.946 205.685,222.070 205.383,222.222 205.383 C 222.374 205.383,222.498 205.135,222.498 204.831 C 222.498 204.527,222.622 204.279,222.774 204.279 C 222.926 204.279,223.050 204.092,223.050 203.865 C 223.050 203.635,223.296 203.451,223.602 203.451 C 223.906 203.451,224.155 203.326,224.155 203.175 C 224.155 203.023,224.396 202.899,224.690 202.899 C 224.985 202.899,225.303 202.774,225.397 202.622 C 225.491 202.471,226.181 202.346,226.931 202.346 C 227.682 202.346,228.295 202.471,228.295 202.622 M273.154 202.622 C 273.248 202.774,273.504 202.899,273.722 202.899 C 274.320 202.899,276.329 205.026,276.329 205.659 C 276.329 205.963,276.453 206.211,276.605 206.211 C 276.756 206.211,276.881 206.646,276.881 207.177 L 276.881 208.144 271.498 208.144 C 266.187 208.144,265.146 207.947,266.391 207.177 C 266.542 207.084,266.667 206.641,266.667 206.195 C 266.667 205.709,266.812 205.383,267.029 205.383 C 267.229 205.383,267.562 204.948,267.771 204.417 C 268.010 203.807,268.335 203.451,268.651 203.451 C 268.926 203.451,269.151 203.326,269.151 203.175 C 269.151 203.023,269.392 202.899,269.687 202.899 C 269.982 202.899,270.300 202.774,270.393 202.622 C 270.487 202.471,271.108 202.346,271.774 202.346 C 272.439 202.346,273.060 202.471,273.154 202.622 M292.202 202.622 C 292.295 202.774,292.551 202.899,292.770 202.899 C 293.263 202.899,295.376 205.039,295.376 205.538 C 295.376 205.739,295.500 205.979,295.652 206.073 C 295.804 206.167,295.928 206.671,295.928 207.194 L 295.928 208.144 290.545 208.144 C 285.944 208.144,285.162 208.083,285.162 207.729 C 285.162 207.502,285.286 207.315,285.438 207.315 C 285.590 207.315,285.714 206.939,285.714 206.478 C 285.714 205.908,285.984 205.377,286.556 204.817 C 287.028 204.357,287.313 203.856,287.204 203.680 C 287.089 203.495,287.131 203.441,287.306 203.549 C 287.469 203.649,287.790 203.544,288.019 203.315 C 288.248 203.086,288.623 202.899,288.853 202.899 C 289.083 202.899,289.347 202.774,289.441 202.622 C 289.535 202.471,290.156 202.346,290.821 202.346 C 291.487 202.346,292.108 202.471,292.202 202.622 M347.274 202.622 C 347.274 202.774,347.460 202.899,347.688 202.899 C 347.916 202.899,348.102 203.023,348.102 203.175 C 348.102 203.326,348.351 203.451,348.654 203.451 C 348.961 203.451,349.206 203.635,349.206 203.865 C 349.206 204.092,349.331 204.279,349.482 204.279 C 349.634 204.279,349.758 204.527,349.758 204.831 C 349.758 205.135,349.883 205.383,350.035 205.383 C 350.186 205.383,350.311 205.818,350.311 206.349 C 350.311 206.881,350.435 207.315,350.587 207.315 C 350.746 207.315,350.863 208.184,350.863 209.369 C 350.863 210.499,350.738 211.500,350.587 211.594 C 350.435 211.688,350.311 212.068,350.311 212.439 C 350.311 212.809,350.186 213.112,350.035 213.112 C 349.883 213.112,349.758 213.370,349.758 213.684 C 349.758 214.295,349.161 215.045,348.674 215.045 C 348.511 215.045,348.377 215.138,348.376 215.252 C 348.375 215.366,348.040 215.614,347.631 215.804 C 346.816 216.182,343.409 216.283,343.409 215.928 C 343.409 215.807,342.974 215.551,342.443 215.358 C 341.792 215.123,341.477 214.835,341.477 214.475 C 341.477 214.181,341.353 213.941,341.201 213.941 C 341.049 213.941,340.925 213.770,340.925 213.560 C 340.925 213.351,340.738 213.025,340.511 212.836 C 340.258 212.627,340.097 212.022,340.097 211.284 C 340.097 210.620,339.972 210.076,339.821 210.076 C 339.669 210.076,339.545 209.696,339.545 209.231 C 339.545 208.739,339.660 208.458,339.821 208.558 C 339.989 208.662,340.097 208.250,340.097 207.504 C 340.097 206.752,340.256 206.146,340.511 205.935 C 340.738 205.746,340.925 205.448,340.925 205.272 C 340.925 205.097,341.173 204.774,341.477 204.555 C 341.781 204.336,342.029 203.998,342.029 203.804 C 342.029 203.610,342.215 203.451,342.443 203.451 C 342.671 203.451,342.857 203.326,342.857 203.175 C 342.857 203.023,343.106 202.899,343.409 202.899 C 343.713 202.899,343.961 202.774,343.961 202.622 C 343.961 202.469,344.697 202.346,345.618 202.346 C 346.538 202.346,347.274 202.469,347.274 202.622 M104.829 210.684 C 104.778 211.944,104.736 210.987,104.736 208.558 C 104.735 206.128,104.777 205.098,104.829 206.267 C 104.880 207.437,104.881 209.424,104.829 210.684 M151.001 211.992 C 151.001 212.439,150.876 212.881,150.725 212.974 C 150.573 213.068,150.449 213.448,150.449 213.819 C 150.449 214.234,150.289 214.493,150.035 214.493 C 149.807 214.493,149.619 214.586,149.618 214.700 C 149.608 215.694,146.274 215.865,145.329 214.919 C 144.654 214.244,144.403 213.112,144.928 213.112 C 145.079 213.112,145.204 212.979,145.204 212.817 C 145.204 212.174,146.038 211.732,147.254 211.732 C 147.948 211.732,148.516 211.608,148.516 211.456 C 148.516 211.304,149.075 211.180,149.758 211.180 C 150.949 211.180,151.001 211.214,151.001 211.992 " stroke="none" fill="#5c5555" fill-rule="evenodd"></path><path id="path1" d="M59.765 46.929 C 59.672 47.081,59.006 47.205,58.286 47.205 C 57.566 47.205,56.810 47.360,56.605 47.550 C 56.354 47.783,56.293 47.789,56.417 47.569 C 56.534 47.361,56.299 47.393,55.767 47.658 C 55.309 47.887,54.934 48.189,54.934 48.329 C 54.934 48.470,54.686 48.585,54.382 48.585 C 54.079 48.585,53.830 48.709,53.830 48.861 C 53.830 49.013,53.644 49.137,53.416 49.137 C 53.188 49.137,53.002 49.262,53.002 49.413 C 53.002 49.565,52.816 49.689,52.588 49.689 C 52.360 49.689,52.174 49.800,52.174 49.935 C 52.174 50.069,51.615 50.747,50.932 51.440 C 50.248 52.133,49.689 52.885,49.689 53.111 C 49.689 53.337,49.565 53.598,49.413 53.692 C 49.262 53.786,49.137 54.104,49.137 54.399 C 49.137 54.693,49.013 54.934,48.861 54.934 C 48.709 54.934,48.581 55.462,48.576 56.108 C 48.572 56.753,48.387 57.520,48.165 57.813 C 47.547 58.629,47.554 157.659,48.172 158.277 C 48.404 158.509,48.585 159.185,48.585 159.815 C 48.585 160.433,48.709 160.939,48.861 160.939 C 49.013 160.939,49.137 161.168,49.137 161.448 C 49.137 162.135,49.895 163.614,50.468 164.042 C 50.723 164.233,51.115 164.745,51.340 165.179 C 51.564 165.614,51.999 166.066,52.306 166.185 C 52.613 166.304,53.163 166.663,53.527 166.983 C 53.892 167.302,54.358 167.564,54.563 167.564 C 54.767 167.564,54.935 167.657,54.937 167.771 C 54.940 168.124,56.380 168.668,57.313 168.668 C 57.801 168.668,58.243 168.794,58.294 168.948 C 58.387 169.227,60.203 169.379,62.197 169.275 C 62.816 169.243,63.178 169.107,63.078 168.944 C 62.975 168.778,63.346 168.668,64.012 168.668 C 64.619 168.668,65.193 168.544,65.286 168.392 C 65.380 168.240,65.698 168.116,65.993 168.116 C 66.288 168.116,66.529 167.992,66.529 167.840 C 66.529 167.688,66.760 167.564,67.042 167.564 C 67.324 167.564,67.789 167.253,68.074 166.874 C 68.359 166.494,68.752 166.184,68.947 166.184 C 69.141 166.184,69.443 165.873,69.615 165.493 C 69.788 165.114,70.070 164.803,70.240 164.803 C 70.538 164.803,71.418 163.546,71.834 162.528 C 71.943 162.261,72.175 162.043,72.349 162.043 C 72.528 162.043,72.605 161.807,72.525 161.504 C 72.448 161.207,72.553 160.741,72.760 160.468 C 72.973 160.187,73.140 159.285,73.145 158.385 C 73.150 157.512,73.247 156.798,73.361 156.798 C 73.587 156.798,73.520 59.349,73.293 59.123 C 73.217 59.046,73.154 58.274,73.154 57.407 C 73.154 56.376,73.017 55.717,72.759 55.503 C 72.542 55.322,72.410 54.936,72.467 54.644 C 72.523 54.352,72.390 53.934,72.171 53.715 C 71.953 53.496,71.774 53.184,71.774 53.022 C 71.774 52.859,71.680 52.726,71.565 52.726 C 71.450 52.726,71.191 52.353,70.990 51.898 C 70.788 51.442,70.468 51.070,70.279 51.070 C 70.089 51.070,69.768 50.759,69.565 50.380 C 69.362 50.000,69.032 49.689,68.831 49.689 C 68.630 49.689,68.311 49.441,68.121 49.137 C 67.931 48.834,67.573 48.585,67.324 48.585 C 67.076 48.585,66.715 48.396,66.523 48.164 C 66.331 47.933,66.114 47.804,66.040 47.877 C 65.967 47.951,65.556 47.830,65.127 47.608 C 64.698 47.386,63.852 47.205,63.246 47.205 C 62.640 47.205,62.068 47.081,61.974 46.929 C 61.880 46.777,61.383 46.653,60.870 46.653 C 60.356 46.653,59.859 46.777,59.765 46.929 M116.190 46.952 C 115.978 47.087,115.144 47.198,114.337 47.201 C 113.529 47.203,112.635 47.330,112.350 47.483 C 112.064 47.636,111.506 47.788,111.108 47.821 C 110.711 47.853,110.255 48.039,110.094 48.233 C 109.933 48.427,109.640 48.585,109.444 48.585 C 109.037 48.585,105.527 50.397,104.900 50.931 C 104.377 51.377,101.926 53.838,101.104 54.742 C 100.763 55.119,100.483 55.545,100.483 55.690 C 100.483 55.835,100.238 56.175,99.937 56.447 C 99.637 56.718,99.458 57.048,99.540 57.180 C 99.621 57.311,99.556 57.419,99.395 57.419 C 99.234 57.419,99.103 57.605,99.103 57.833 C 99.103 58.061,98.979 58.247,98.827 58.247 C 98.675 58.247,98.551 58.620,98.551 59.075 C 98.551 59.619,98.412 59.903,98.145 59.903 C 97.904 59.903,97.802 60.066,97.894 60.305 C 97.979 60.525,97.850 60.988,97.609 61.332 C 97.368 61.677,97.170 62.421,97.170 62.985 C 97.170 63.550,97.046 64.088,96.894 64.182 C 96.512 64.418,96.512 159.460,96.894 159.696 C 97.046 159.790,97.170 160.217,97.170 160.645 C 97.170 161.073,97.358 161.579,97.588 161.770 C 97.818 161.960,97.973 162.259,97.933 162.433 C 97.893 162.607,97.985 162.794,98.137 162.849 C 98.288 162.904,98.565 163.310,98.750 163.752 C 99.086 164.550,100.538 166.184,100.913 166.184 C 101.020 166.184,101.309 166.415,101.555 166.697 C 102.206 167.445,104.755 168.668,105.664 168.668 C 106.094 168.668,106.599 168.821,106.786 169.009 C 107.157 169.379,111.249 169.527,111.249 169.170 C 111.249 169.055,111.456 169.041,111.709 169.138 C 112.017 169.256,112.102 169.208,111.968 168.991 C 111.797 168.714,112.651 168.560,113.634 168.692 C 113.731 168.705,113.886 168.609,113.979 168.479 C 114.163 168.221,115.595 167.513,116.154 167.404 C 116.347 167.366,116.894 166.921,117.370 166.414 C 117.846 165.908,118.371 165.535,118.538 165.585 C 118.704 165.636,118.751 165.588,118.641 165.478 C 118.532 165.368,118.749 164.914,119.124 164.468 C 119.500 164.022,119.807 163.473,119.807 163.248 C 119.807 163.022,119.927 162.913,120.075 163.004 C 120.222 163.095,120.422 162.854,120.519 162.468 C 120.616 162.082,120.806 161.767,120.941 161.767 C 121.076 161.767,121.187 161.339,121.187 160.817 C 121.187 160.294,121.311 159.790,121.463 159.696 C 121.645 159.584,121.739 146.346,121.739 120.878 C 121.739 97.590,121.839 82.293,121.992 82.387 C 122.130 82.473,122.307 82.387,122.384 82.196 C 122.461 82.006,122.534 82.136,122.545 82.487 C 122.557 82.838,122.691 83.048,122.843 82.954 C 123.094 82.799,123.225 83.230,123.195 84.116 C 123.189 84.300,123.309 84.424,123.460 84.392 C 123.612 84.360,123.777 84.580,123.827 84.881 C 123.877 85.182,124.048 85.472,124.209 85.525 C 124.369 85.579,124.500 85.800,124.500 86.017 C 124.500 86.234,124.613 86.628,124.753 86.891 C 124.892 87.155,125.205 87.831,125.450 88.394 C 125.695 88.957,126.016 89.492,126.163 89.584 C 126.311 89.675,126.436 90.022,126.441 90.354 C 126.446 90.687,126.628 91.195,126.846 91.483 C 127.064 91.771,127.165 92.132,127.071 92.285 C 126.976 92.438,127.024 92.486,127.176 92.391 C 127.329 92.297,127.617 92.714,127.817 93.319 C 128.016 93.923,128.345 94.555,128.548 94.724 C 128.751 94.892,128.916 95.256,128.916 95.532 C 128.916 95.808,129.041 96.110,129.193 96.204 C 129.344 96.298,129.469 96.685,129.469 97.065 C 129.469 97.445,129.583 97.685,129.722 97.598 C 129.862 97.512,130.058 97.815,130.158 98.272 C 130.259 98.729,130.455 99.103,130.595 99.103 C 130.735 99.103,130.849 99.351,130.849 99.655 C 130.849 99.959,130.973 100.207,131.125 100.207 C 131.277 100.207,131.401 100.518,131.401 100.897 C 131.401 101.277,131.525 101.587,131.677 101.587 C 131.829 101.587,131.953 101.776,131.953 102.007 C 131.953 102.238,132.264 102.918,132.643 103.520 C 133.023 104.121,133.333 104.719,133.333 104.848 C 133.333 104.977,133.643 105.694,134.022 106.440 C 134.401 107.187,134.712 107.954,134.712 108.144 C 134.713 108.333,134.838 108.489,134.990 108.489 C 135.141 108.489,135.266 108.677,135.266 108.906 C 135.266 109.136,135.379 109.540,135.519 109.804 C 135.658 110.067,135.974 110.749,136.222 111.318 C 136.469 111.888,136.790 112.353,136.935 112.353 C 137.080 112.353,137.198 112.664,137.198 113.043 C 137.198 113.423,137.322 113.734,137.474 113.734 C 137.626 113.734,137.750 113.982,137.750 114.286 C 137.750 114.589,137.874 114.838,138.026 114.838 C 138.178 114.838,138.302 115.089,138.302 115.395 C 138.302 115.702,138.621 116.459,139.011 117.076 C 139.401 117.694,139.738 118.428,139.759 118.708 C 139.780 118.988,139.896 119.156,140.016 119.081 C 140.136 119.007,140.239 119.171,140.243 119.445 C 140.248 119.720,140.426 120.174,140.639 120.455 C 140.851 120.735,140.964 121.123,140.890 121.316 C 140.816 121.510,140.948 121.742,141.185 121.833 C 141.421 121.924,141.615 122.250,141.615 122.559 C 141.615 122.867,141.739 123.119,141.891 123.119 C 142.043 123.119,142.167 123.437,142.167 123.826 C 142.167 124.226,142.286 124.458,142.443 124.362 C 142.595 124.268,142.719 124.432,142.719 124.726 C 142.719 125.020,142.904 125.414,143.130 125.601 C 143.356 125.789,143.479 126.043,143.404 126.165 C 143.328 126.287,143.454 126.575,143.683 126.804 C 143.912 127.033,144.099 127.416,144.099 127.655 C 144.099 127.893,144.224 128.088,144.375 128.088 C 144.527 128.088,144.651 128.418,144.651 128.821 C 144.651 129.225,144.962 129.962,145.342 130.459 C 145.721 130.957,146.032 131.628,146.032 131.951 C 146.032 132.274,146.156 132.461,146.308 132.367 C 146.460 132.273,146.584 132.376,146.584 132.595 C 146.584 132.815,146.764 133.341,146.984 133.765 C 147.204 134.189,147.329 134.625,147.261 134.734 C 147.194 134.843,147.325 135.003,147.552 135.090 C 147.778 135.177,147.964 135.501,147.964 135.809 C 147.964 136.118,148.088 136.370,148.240 136.370 C 148.392 136.370,148.516 136.618,148.516 136.922 C 148.516 137.226,148.640 137.474,148.792 137.474 C 148.944 137.474,149.068 137.774,149.068 138.141 C 149.068 138.508,149.199 138.852,149.359 138.905 C 149.520 138.959,149.678 139.187,149.712 139.411 C 149.746 139.636,149.895 140.005,150.042 140.232 C 150.614 141.107,151.224 142.581,151.099 142.783 C 151.027 142.900,151.100 142.995,151.260 142.995 C 151.421 142.995,151.553 143.166,151.553 143.375 C 151.553 143.585,151.739 143.910,151.967 144.099 C 152.195 144.288,152.381 144.738,152.381 145.099 C 152.381 145.460,152.505 145.756,152.657 145.756 C 152.809 145.756,152.933 146.066,152.933 146.446 C 152.933 146.825,153.047 147.136,153.186 147.136 C 153.326 147.136,153.653 147.695,153.914 148.378 C 154.175 149.061,154.496 149.620,154.627 149.620 C 154.758 149.620,154.865 149.808,154.865 150.038 C 154.865 150.457,154.958 150.682,155.785 152.273 C 156.030 152.745,156.152 153.211,156.054 153.308 C 155.957 153.406,156.085 153.485,156.338 153.485 C 156.591 153.485,156.798 153.694,156.798 153.949 C 156.798 154.621,157.423 156.246,157.681 156.246 C 157.803 156.246,157.902 156.479,157.902 156.764 C 157.902 157.049,158.088 157.437,158.316 157.626 C 158.544 157.815,158.730 158.272,158.730 158.642 C 158.730 159.012,158.833 159.251,158.960 159.173 C 159.086 159.095,159.357 159.460,159.563 159.985 C 159.769 160.509,160.025 160.939,160.132 160.939 C 160.239 160.939,160.406 161.254,160.503 161.640 C 160.599 162.026,160.799 162.267,160.947 162.176 C 161.094 162.085,161.215 162.137,161.215 162.293 C 161.215 162.726,164.752 166.184,165.195 166.184 C 165.410 166.184,165.627 166.298,165.677 166.439 C 165.728 166.579,165.953 166.735,166.177 166.784 C 166.401 166.833,166.738 166.998,166.927 167.150 C 167.115 167.302,167.428 167.550,167.623 167.702 C 167.818 167.854,168.288 168.020,168.668 168.071 C 169.048 168.122,169.476 168.277,169.620 168.416 C 169.765 168.555,170.355 168.668,170.932 168.668 C 171.509 168.668,171.981 168.766,171.981 168.885 C 171.981 169.350,177.542 169.476,178.110 169.025 C 178.307 168.868,179.027 168.678,179.710 168.602 C 181.030 168.455,183.851 167.336,183.851 166.960 C 183.851 166.837,184.073 166.736,184.343 166.736 C 185.682 166.736,189.806 162.329,191.125 159.489 C 191.390 158.920,191.725 158.454,191.869 158.454 C 192.014 158.454,192.133 158.206,192.133 157.902 C 192.133 157.598,192.257 157.350,192.409 157.350 C 192.560 157.350,192.685 157.039,192.685 156.660 C 192.685 156.280,192.809 155.970,192.961 155.970 C 193.112 155.970,193.237 155.736,193.237 155.451 C 193.237 155.166,193.419 154.782,193.642 154.597 C 193.865 154.412,194.036 154.179,194.023 154.080 C 193.957 153.582,194.089 153.191,194.282 153.311 C 194.402 153.385,194.527 153.113,194.561 152.706 C 194.594 152.300,194.745 151.925,194.895 151.875 C 195.046 151.824,195.169 151.613,195.169 151.406 C 195.169 151.199,195.480 150.446,195.859 149.732 C 196.239 149.018,196.549 148.259,196.549 148.045 C 196.549 147.831,196.674 147.732,196.825 147.826 C 196.982 147.923,197.101 147.691,197.101 147.290 C 197.101 146.902,197.226 146.584,197.378 146.584 C 197.529 146.584,197.654 146.273,197.654 145.894 C 197.654 145.514,197.765 145.204,197.902 145.204 C 198.039 145.204,198.381 144.645,198.661 143.962 C 198.942 143.280,199.265 142.721,199.379 142.720 C 199.493 142.720,199.586 142.409,199.586 142.029 C 199.586 141.649,199.679 141.338,199.793 141.336 C 199.907 141.335,200.245 140.776,200.545 140.094 C 200.845 139.412,201.186 138.854,201.304 138.854 C 201.422 138.854,201.518 138.554,201.518 138.187 C 201.518 137.820,201.631 137.479,201.769 137.428 C 201.907 137.378,202.062 137.088,202.114 136.784 C 202.166 136.480,202.364 136.068,202.553 135.867 C 202.743 135.666,202.899 135.270,202.899 134.986 C 202.899 134.702,203.023 134.393,203.175 134.300 C 203.326 134.206,203.451 133.888,203.451 133.593 C 203.451 133.298,203.575 133.057,203.727 133.057 C 203.879 133.057,204.003 132.809,204.003 132.505 C 204.003 132.189,204.187 131.953,204.433 131.953 C 204.670 131.953,204.785 131.826,204.689 131.671 C 204.593 131.516,204.834 130.817,205.225 130.118 C 205.616 129.419,205.935 128.691,205.935 128.501 C 205.935 128.311,206.120 128.002,206.346 127.815 C 206.572 127.627,206.697 127.377,206.624 127.258 C 206.550 127.139,206.676 126.971,206.903 126.884 C 207.130 126.797,207.316 126.442,207.316 126.096 C 207.317 125.749,207.565 125.059,207.869 124.562 C 208.172 124.065,208.420 123.420,208.420 123.129 C 208.420 122.838,208.536 122.528,208.678 122.440 C 209.018 122.230,209.800 120.653,209.800 120.178 C 209.800 119.974,209.924 119.807,210.076 119.807 C 210.228 119.807,210.352 119.572,210.352 119.284 C 210.352 118.997,210.552 118.685,210.797 118.591 C 211.085 118.480,211.191 118.220,211.095 117.854 C 211.005 117.509,211.100 117.230,211.340 117.138 C 211.556 117.055,211.731 116.845,211.730 116.672 C 211.729 116.418,213.240 113.152,214.524 110.632 C 214.659 110.368,214.769 109.956,214.769 109.715 C 214.769 109.474,214.924 109.104,215.114 108.893 C 215.993 107.912,216.149 107.647,216.149 107.136 C 216.149 106.835,216.273 106.512,216.425 106.418 C 216.577 106.324,216.701 105.999,216.701 105.696 C 216.701 105.392,216.817 105.215,216.958 105.302 C 217.100 105.390,217.255 105.118,217.304 104.698 C 217.362 104.188,217.529 103.964,217.805 104.026 C 218.033 104.076,218.131 104.029,218.022 103.920 C 217.914 103.812,217.970 103.460,218.147 103.138 C 218.324 102.817,218.498 102.380,218.533 102.167 C 218.568 101.954,218.698 101.706,218.822 101.615 C 218.946 101.524,219.088 101.139,219.137 100.759 C 219.186 100.380,219.372 99.942,219.551 99.787 C 220.069 99.338,220.566 98.330,220.566 97.726 C 220.566 97.421,220.690 97.170,220.842 97.170 C 220.994 97.170,221.118 96.860,221.118 96.480 C 221.118 96.042,221.274 95.790,221.544 95.790 C 221.779 95.790,221.950 95.635,221.926 95.445 C 221.834 94.738,221.955 94.383,222.229 94.552 C 222.385 94.648,222.478 94.618,222.436 94.486 C 222.323 94.127,223.117 92.202,223.378 92.202 C 223.501 92.202,223.602 91.900,223.602 91.531 C 223.602 91.162,223.758 90.692,223.948 90.485 C 224.496 89.889,224.861 89.124,225.273 87.716 C 225.483 86.994,225.815 86.404,226.009 86.404 C 226.204 86.404,226.363 86.216,226.363 85.987 C 226.363 85.757,226.487 85.322,226.639 85.020 C 226.791 84.719,227.039 84.225,227.191 83.924 C 227.343 83.622,227.467 83.201,227.467 82.987 C 227.467 82.547,227.987 82.286,228.502 82.465 C 228.776 82.561,228.848 90.520,228.852 121.003 C 228.856 160.273,228.862 160.537,229.848 161.804 C 230.153 162.195,230.537 163.052,230.655 163.603 C 230.954 165.001,236.150 168.668,237.832 168.668 C 238.319 168.668,238.849 168.826,239.010 169.020 C 239.376 169.461,243.384 169.424,243.833 168.976 C 244.002 168.807,244.481 168.668,244.897 168.668 C 245.314 168.668,245.731 168.544,245.825 168.392 C 245.919 168.240,246.299 168.116,246.669 168.116 C 247.040 168.116,247.343 167.992,247.343 167.840 C 247.343 167.688,247.502 167.564,247.696 167.564 C 247.890 167.564,248.250 167.346,248.497 167.081 C 248.744 166.815,249.387 166.287,249.927 165.908 C 250.466 165.528,251.049 164.885,251.221 164.478 C 251.393 164.071,251.709 163.672,251.923 163.590 C 252.137 163.508,252.312 163.250,252.312 163.018 C 252.312 162.785,252.436 162.595,252.588 162.595 C 252.740 162.595,252.864 162.354,252.864 162.059 C 252.864 161.764,252.988 161.446,253.140 161.353 C 253.292 161.259,253.416 160.641,253.416 159.979 C 253.416 159.317,253.542 158.734,253.695 158.683 C 254.086 158.553,254.090 65.712,253.699 65.321 C 253.544 65.165,253.416 64.449,253.416 63.729 C 253.416 63.009,253.292 62.344,253.140 62.250 C 252.988 62.156,252.864 61.724,252.864 61.290 C 252.864 60.489,252.070 58.804,251.691 58.801 C 251.577 58.800,251.484 58.636,251.484 58.437 C 251.484 57.886,250.401 55.763,250.120 55.763 C 249.984 55.763,249.591 55.306,249.246 54.749 C 248.901 54.191,248.125 53.290,247.522 52.747 C 246.918 52.204,246.267 51.605,246.075 51.415 C 245.883 51.225,245.593 51.070,245.430 51.070 C 245.268 51.070,245.135 50.883,245.135 50.656 C 245.135 50.422,244.887 50.242,244.566 50.242 C 244.254 50.242,244.066 50.131,244.150 49.995 C 244.234 49.860,243.744 49.584,243.062 49.383 C 242.380 49.182,241.822 48.920,241.822 48.801 C 241.822 48.682,241.598 48.585,241.325 48.585 C 241.052 48.585,240.701 48.458,240.546 48.303 C 240.278 48.035,239.336 47.741,238.578 47.689 C 238.389 47.676,238.233 47.562,238.233 47.435 C 238.233 47.308,237.495 47.205,236.593 47.205 C 235.691 47.205,234.889 47.100,234.810 46.973 C 234.625 46.674,231.283 46.646,230.915 46.940 C 230.761 47.063,229.798 47.201,228.775 47.247 C 227.752 47.293,226.915 47.426,226.915 47.544 C 226.915 47.661,226.690 47.757,226.416 47.757 C 226.141 47.757,225.675 47.939,225.381 48.162 C 225.086 48.385,224.503 48.572,224.086 48.576 C 223.668 48.581,223.325 48.678,223.323 48.792 C 223.322 48.906,222.829 49.235,222.228 49.522 C 221.628 49.810,220.889 50.276,220.587 50.558 C 220.284 50.839,219.962 51.070,219.870 51.070 C 219.592 51.070,215.873 54.911,215.873 55.199 C 215.873 55.347,215.505 55.844,215.054 56.305 C 214.604 56.766,214.308 57.143,214.396 57.143 C 214.484 57.143,214.356 57.449,214.110 57.823 C 213.865 58.198,213.665 58.694,213.665 58.927 C 213.665 59.161,213.540 59.351,213.389 59.351 C 213.237 59.351,213.112 59.600,213.112 59.903 C 213.112 60.226,212.928 60.455,212.669 60.455 C 212.392 60.455,212.284 60.608,212.381 60.862 C 212.467 61.085,212.356 61.449,212.135 61.670 C 211.913 61.891,211.732 62.330,211.732 62.644 C 211.732 62.959,211.608 63.216,211.456 63.216 C 211.304 63.216,211.180 63.527,211.180 63.906 C 211.180 64.286,211.084 64.596,210.966 64.596 C 210.848 64.596,210.507 65.154,210.207 65.836 C 209.907 66.518,209.569 67.077,209.455 67.078 C 209.341 67.080,209.248 67.329,209.248 67.633 C 209.248 67.937,209.124 68.185,208.972 68.185 C 208.820 68.185,208.696 68.485,208.696 68.852 C 208.696 69.219,208.602 69.561,208.489 69.611 C 208.205 69.737,207.315 71.698,207.315 72.197 C 207.315 72.420,207.191 72.602,207.039 72.602 C 206.888 72.602,206.763 72.797,206.763 73.036 C 206.763 73.274,206.570 73.663,206.333 73.899 C 206.097 74.136,205.969 74.500,206.049 74.708 C 206.128 74.916,206.097 75.086,205.980 75.086 C 205.742 75.086,204.831 77.020,204.831 77.525 C 204.831 77.702,204.707 77.847,204.555 77.847 C 204.403 77.847,204.279 78.082,204.279 78.369 C 204.279 78.657,204.092 78.963,203.865 79.051 C 203.637 79.138,203.451 79.529,203.451 79.920 C 203.451 80.311,203.202 80.897,202.899 81.223 C 202.595 81.549,202.346 82.112,202.346 82.473 C 202.346 82.835,202.191 83.304,202.001 83.516 C 201.293 84.305,201.102 84.624,201.012 85.162 C 200.961 85.466,200.806 85.832,200.667 85.977 C 200.528 86.121,200.414 86.452,200.414 86.713 C 200.414 86.973,200.316 87.228,200.197 87.279 C 199.987 87.368,199.100 89.160,198.069 91.580 C 197.795 92.226,197.464 92.754,197.336 92.754 C 197.207 92.754,197.101 93.002,197.101 93.306 C 197.101 93.609,196.977 93.858,196.825 93.858 C 196.674 93.858,196.549 94.099,196.549 94.394 C 196.549 94.688,196.425 95.006,196.273 95.100 C 196.121 95.194,195.997 95.561,195.997 95.915 C 195.997 96.269,195.803 96.634,195.566 96.725 C 195.328 96.816,195.205 97.006,195.292 97.146 C 195.379 97.287,195.263 97.589,195.034 97.819 C 194.804 98.048,194.617 98.370,194.617 98.535 C 194.617 98.699,194.507 99.050,194.373 99.314 C 194.239 99.577,193.960 100.166,193.752 100.621 C 193.545 101.077,193.220 101.549,193.030 101.670 C 192.840 101.791,192.685 102.195,192.685 102.567 C 192.685 102.939,192.560 103.244,192.409 103.244 C 192.257 103.244,192.133 103.435,192.133 103.669 C 192.133 103.902,191.859 104.617,191.525 105.256 C 191.190 105.895,190.938 106.499,190.964 106.599 C 190.990 106.698,190.828 106.931,190.605 107.116 C 190.383 107.301,190.200 107.755,190.200 108.125 C 190.200 108.503,190.079 108.723,189.924 108.627 C 189.768 108.530,189.648 108.762,189.648 109.162 C 189.648 109.551,189.524 109.869,189.372 109.869 C 189.220 109.869,189.096 110.166,189.096 110.529 C 189.096 110.893,188.902 111.265,188.664 111.356 C 188.427 111.447,188.304 111.636,188.391 111.777 C 188.478 111.918,188.392 112.198,188.201 112.400 C 188.010 112.602,187.681 113.260,187.469 113.861 C 187.258 114.463,186.917 115.124,186.710 115.330 C 186.504 115.537,186.335 115.879,186.335 116.091 C 186.335 116.304,186.087 116.920,185.783 117.460 C 185.480 118.001,185.231 118.626,185.231 118.849 C 185.231 119.072,185.109 119.255,184.960 119.255 C 184.811 119.255,184.612 119.565,184.516 119.945 C 184.421 120.324,184.232 120.635,184.097 120.635 C 183.962 120.635,183.851 120.945,183.851 121.325 C 183.851 121.705,183.727 122.015,183.575 122.015 C 183.423 122.015,183.299 122.256,183.299 122.551 C 183.299 122.846,183.175 123.164,183.023 123.257 C 182.871 123.351,182.747 123.656,182.747 123.934 C 182.747 124.213,182.560 124.512,182.333 124.599 C 182.105 124.687,181.919 125.011,181.919 125.319 C 181.919 125.628,181.794 125.880,181.643 125.880 C 181.491 125.880,181.366 126.198,181.366 126.586 C 181.366 126.987,181.247 127.219,181.090 127.122 C 180.936 127.027,180.814 127.237,180.814 127.597 C 180.814 127.951,180.632 128.501,180.410 128.819 C 180.188 129.136,180.066 129.457,180.141 129.531 C 180.215 129.605,180.086 129.823,179.855 130.015 C 179.623 130.207,179.434 130.590,179.434 130.866 C 179.434 131.142,179.310 131.445,179.158 131.539 C 179.006 131.633,178.882 131.951,178.882 132.245 C 178.882 132.540,178.758 132.781,178.606 132.781 C 178.454 132.781,178.330 133.092,178.330 133.471 C 178.330 133.851,178.237 134.162,178.123 134.163 C 177.845 134.166,176.950 135.762,176.950 136.254 C 176.950 136.470,176.825 136.646,176.674 136.646 C 176.522 136.646,176.398 136.894,176.398 137.198 C 176.398 137.502,176.273 137.750,176.121 137.750 C 175.970 137.750,175.845 137.991,175.845 138.286 C 175.845 140.377,173.778 137.670,172.749 134.231 C 172.556 133.585,172.242 133.057,172.051 133.057 C 171.861 133.057,171.705 132.830,171.705 132.552 C 171.705 132.090,170.850 130.204,170.183 129.193 C 170.033 128.965,169.910 128.530,169.910 128.226 C 169.910 127.923,169.755 127.705,169.565 127.743 C 169.363 127.784,169.220 127.527,169.220 127.122 C 169.220 126.743,169.096 126.432,168.944 126.432 C 168.792 126.432,168.668 126.191,168.668 125.896 C 168.668 125.602,168.544 125.284,168.392 125.190 C 168.240 125.096,168.116 124.791,168.116 124.513 C 168.116 124.234,167.930 123.935,167.702 123.848 C 167.474 123.760,167.288 123.497,167.288 123.262 C 167.288 123.028,167.178 122.620,167.044 122.357 C 165.755 119.826,164.801 117.648,164.802 117.237 C 164.803 116.962,164.679 116.814,164.527 116.908 C 164.375 117.002,164.251 116.823,164.251 116.510 C 164.251 116.198,164.127 115.942,163.975 115.942 C 163.823 115.942,163.699 115.628,163.699 115.243 C 163.699 114.859,163.513 114.473,163.285 114.386 C 163.057 114.298,162.871 113.991,162.871 113.704 C 162.871 113.417,162.747 113.182,162.595 113.182 C 162.443 113.182,162.319 112.871,162.319 112.491 C 162.319 112.112,162.195 111.801,162.043 111.801 C 161.891 111.801,161.767 111.603,161.767 111.361 C 161.767 110.874,160.920 109.232,160.594 109.087 C 160.480 109.036,160.388 108.788,160.391 108.535 C 160.396 108.019,158.983 105.089,158.661 104.946 C 158.547 104.895,158.454 104.546,158.454 104.171 C 158.454 103.785,158.334 103.562,158.178 103.658 C 158.021 103.754,157.902 103.523,157.902 103.122 C 157.902 102.733,157.791 102.415,157.656 102.415 C 157.521 102.415,157.332 102.105,157.237 101.725 C 157.141 101.346,156.941 101.035,156.793 101.035 C 156.644 101.035,156.522 100.847,156.522 100.617 C 156.522 100.388,156.412 99.984,156.278 99.720 C 155.831 98.842,155.434 97.865,155.356 97.453 C 155.314 97.229,155.124 96.878,154.934 96.674 C 154.745 96.470,154.589 96.125,154.589 95.909 C 154.589 95.692,154.495 95.514,154.381 95.514 C 154.114 95.514,153.466 94.061,153.412 93.341 C 153.389 93.039,153.272 92.853,153.152 92.927 C 153.031 93.001,152.933 92.803,152.933 92.485 C 152.933 92.168,152.747 91.837,152.519 91.749 C 152.291 91.662,152.105 91.293,152.105 90.930 C 152.105 90.566,151.981 90.269,151.829 90.269 C 151.677 90.269,151.553 89.951,151.553 89.563 C 151.553 89.162,151.433 88.930,151.277 89.027 C 151.122 89.123,151.001 88.903,151.001 88.525 C 151.001 88.155,150.816 87.699,150.590 87.511 C 150.364 87.324,150.238 87.074,150.311 86.957 C 150.383 86.839,150.258 86.590,150.031 86.402 C 149.805 86.214,149.620 85.852,149.620 85.598 C 149.620 85.343,149.507 85.017,149.367 84.872 C 149.228 84.728,149.073 84.362,149.022 84.058 C 148.972 83.754,148.651 83.197,148.309 82.819 C 147.968 82.441,147.688 81.978,147.688 81.792 C 147.688 81.605,147.440 81.010,147.136 80.469 C 146.832 79.929,146.584 79.300,146.584 79.072 C 146.584 78.844,146.398 78.586,146.170 78.499 C 145.942 78.411,145.756 78.043,145.756 77.679 C 145.756 77.316,145.662 77.019,145.547 77.019 C 145.432 77.019,145.173 76.491,144.972 75.847 C 144.771 75.202,144.467 74.506,144.296 74.300 C 144.125 74.095,143.956 73.724,143.919 73.476 C 143.883 73.228,143.722 72.982,143.562 72.929 C 143.402 72.876,143.271 72.679,143.271 72.492 C 143.271 72.306,142.961 71.509,142.581 70.722 C 142.202 69.936,141.891 69.167,141.891 69.014 C 141.891 68.862,141.767 68.737,141.615 68.737 C 141.463 68.737,141.339 68.489,141.339 68.185 C 141.339 67.881,141.215 67.633,141.063 67.633 C 140.911 67.633,140.787 67.461,140.787 67.250 C 140.787 67.040,140.607 66.521,140.387 66.097 C 140.167 65.673,140.062 65.205,140.153 65.057 C 140.245 64.908,140.190 64.867,140.031 64.966 C 139.870 65.065,139.665 64.839,139.569 64.456 C 139.474 64.078,139.274 63.768,139.125 63.768 C 138.976 63.768,138.854 63.534,138.854 63.248 C 138.854 62.961,138.674 62.380,138.454 61.956 C 138.234 61.532,138.110 61.096,138.177 60.987 C 138.244 60.878,138.106 60.715,137.869 60.624 C 137.633 60.534,137.508 60.348,137.592 60.213 C 137.675 60.077,137.559 59.812,137.333 59.625 C 137.107 59.437,136.922 59.113,136.922 58.903 C 136.922 58.694,136.798 58.523,136.646 58.523 C 136.494 58.523,136.370 58.331,136.370 58.097 C 136.370 57.863,136.059 57.336,135.680 56.927 C 135.300 56.517,134.990 56.079,134.990 55.953 C 134.990 55.826,134.802 55.536,134.573 55.307 C 134.344 55.077,134.239 54.757,134.340 54.593 C 134.448 54.418,134.393 54.377,134.204 54.494 C 134.029 54.602,133.885 54.575,133.885 54.434 C 133.885 54.048,131.934 52.039,130.987 51.450 C 130.531 51.166,129.932 50.654,129.656 50.312 C 129.379 49.970,128.913 49.689,128.620 49.689 C 128.328 49.689,128.088 49.565,128.088 49.413 C 128.088 49.262,127.840 49.137,127.536 49.137 C 127.233 49.137,126.984 49.013,126.984 48.861 C 126.984 48.709,126.604 48.585,126.140 48.585 C 125.675 48.585,125.363 48.476,125.446 48.342 C 125.861 47.669,117.128 46.358,116.190 46.952 M288.889 46.947 C 288.585 47.068,287.906 47.175,287.380 47.186 C 286.290 47.208,284.058 47.988,284.058 48.347 C 284.058 48.478,283.801 48.585,283.488 48.585 C 283.157 48.585,282.147 49.340,281.087 50.380 C 280.081 51.366,279.352 52.174,279.469 52.174 C 279.585 52.174,279.485 52.369,279.247 52.608 C 279.008 52.846,278.813 53.219,278.813 53.436 C 278.813 53.653,278.689 53.830,278.537 53.830 C 278.385 53.830,278.261 54.079,278.261 54.382 C 278.261 54.686,278.137 54.934,277.985 54.934 C 277.833 54.934,277.709 55.531,277.709 56.259 C 277.709 56.988,277.553 57.740,277.364 57.930 C 276.793 58.500,276.722 156.561,277.292 157.703 C 277.521 158.163,277.709 159.009,277.709 159.584 C 277.709 160.159,277.833 160.707,277.985 160.801 C 278.137 160.894,278.261 161.274,278.261 161.645 C 278.261 162.016,278.385 162.319,278.537 162.319 C 278.689 162.319,278.813 162.523,278.813 162.772 C 278.813 163.021,279.186 163.581,279.641 164.017 C 280.097 164.452,280.469 164.937,280.469 165.095 C 280.469 165.472,281.890 166.716,282.333 166.727 C 282.522 166.732,282.678 166.867,282.678 167.027 C 282.678 167.398,285.526 168.668,286.357 168.668 C 286.702 168.668,287.135 168.819,287.320 169.004 C 287.746 169.429,291.989 169.405,292.420 168.974 C 292.588 168.806,293.067 168.668,293.483 168.668 C 293.899 168.668,294.316 168.544,294.410 168.392 C 294.504 168.240,294.870 168.116,295.225 168.116 C 295.579 168.116,295.941 167.928,296.029 167.699 C 296.117 167.470,296.286 167.313,296.404 167.349 C 296.639 167.422,297.297 166.901,299.094 165.217 C 300.284 164.103,301.449 162.093,301.449 161.154 C 301.449 160.874,301.636 160.574,301.863 160.486 C 302.158 160.373,302.277 159.912,302.277 158.885 C 302.277 158.091,302.342 157.378,302.420 157.299 C 302.638 157.081,302.718 59.085,302.500 59.006 C 302.394 58.968,302.281 58.161,302.248 57.212 C 302.204 55.987,302.080 55.487,301.818 55.487 C 301.581 55.487,301.449 55.142,301.449 54.520 C 301.449 53.989,301.339 53.554,301.205 53.554 C 301.070 53.554,300.754 53.119,300.502 52.588 C 300.249 52.057,299.917 51.622,299.764 51.622 C 299.610 51.622,299.561 51.498,299.655 51.346 C 299.749 51.194,299.688 51.070,299.520 51.070 C 299.351 51.070,298.776 50.645,298.242 50.126 C 297.707 49.607,296.841 48.978,296.316 48.729 C 295.792 48.481,295.427 48.174,295.505 48.048 C 295.656 47.804,294.641 47.540,292.616 47.296 C 291.932 47.213,291.249 47.049,291.097 46.930 C 290.746 46.655,289.604 46.664,288.889 46.947 " stroke="none" fill="#0494dc" fill-rule="evenodd"></path><path id="path2" d="M104.740 195.540 C 104.662 195.744,104.636 196.831,104.683 197.955 L 104.768 200.000 104.903 197.584 C 105.037 195.176,105.010 194.836,104.740 195.540 M104.736 208.558 C 104.736 210.987,104.778 211.944,104.829 210.684 C 104.881 209.424,104.880 207.437,104.829 206.267 C 104.777 205.098,104.735 206.128,104.736 208.558 " stroke="none" fill="#607470" fill-rule="evenodd"></path><path id="path3" d="M73.565 108.075 C 73.565 134.645,73.597 145.473,73.637 132.138 C 73.677 118.803,73.677 97.064,73.637 83.829 C 73.597 70.594,73.565 81.504,73.565 108.075 " stroke="none" fill="#3474b8" fill-rule="evenodd"></path><path id="path4" d="M302.688 108.075 C 302.688 134.645,302.721 145.473,302.761 132.138 C 302.800 118.803,302.800 97.064,302.761 83.829 C 302.721 70.594,302.688 81.504,302.688 108.075 M254.103 112.353 C 254.103 136.570,254.135 146.477,254.175 134.369 C 254.215 122.260,254.215 102.447,254.175 90.338 C 254.135 78.230,254.103 88.137,254.103 112.353 M279.365 163.890 C 279.365 164.042,279.614 164.390,279.917 164.665 C 280.221 164.940,280.469 165.103,280.469 165.026 C 280.469 164.950,280.221 164.601,279.917 164.251 C 279.614 163.901,279.365 163.739,279.365 163.890 " stroke="none" fill="#0474e0" fill-rule="evenodd"></path></g></svg>